<?xml version="1.0" encoding="UTF-8" standalone="no"?>
<!DOCTYPE svg PUBLIC "-//W3C//DTD SVG 1.1//EN"
 "http://www.w3.org/Graphics/SVG/1.1/DTD/svg11.dtd">
<!-- Generated by graphviz version 2.26.3 (20100126.1600)
 -->
<!-- Title: G Pages: 1 -->
<svg width="409pt" height="576pt"
 viewBox="0.00 0.00 408.77 576.00" xmlns="http://www.w3.org/2000/svg" xmlns:xlink="http://www.w3.org/1999/xlink">
<g id="graph1" class="graph" transform="scale(0.774194 0.774194) rotate(0) translate(4 740)">
<title>G</title>
<polygon fill="white" stroke="white" points="-4,5 -4,-740 525,-740 525,5 -4,5"/>
<g id="graph2" class="cluster"><title>cluster0</title>
<polygon fill="lightgrey" stroke="lightgrey" points="290,-21 290,-649 390,-649 390,-21 290,-21"/>
<text text-anchor="middle" x="340" y="-634.2" font-family="Arial" font-size="12.00">Anomaly Report</text>
<text text-anchor="middle" x="340" y="-619.2" font-family="Arial" font-size="12.00">Life Cycle</text>
</g>
<g id="graph3" class="cluster"><title>cluster1</title>
<polygon fill="none" stroke="blue" points="72,-138 72,-651 282,-651 282,-138 72,-138"/>
<text text-anchor="middle" x="177" y="-636.2" font-family="Arial" font-size="12.00">IV&amp;V &amp; Eng. Processes</text>
</g>
<g id="graph4" class="cluster"><title>cluster2</title>
<polygon fill="lightgrey" stroke="lightgrey" points="418,-8 418,-645 512,-645 512,-8 418,-8"/>
<text text-anchor="middle" x="465" y="-630.2" font-family="Arial" font-size="12.00">Other</text>
<text text-anchor="middle" x="465" y="-615.2" font-family="Arial" font-size="12.00">Closure States</text>
</g>
<!-- Pending -->
<g id="node2" class="node"><title>Pending</title>
<polygon fill="white" stroke="white" points="376,-603 324,-603 324,-551 376,-551 376,-603"/>
<text text-anchor="middle" x="350" y="-574.5" font-family="Arial" font-size="10.00">Pending</text>
</g>
<!-- Valid -->
<g id="node4" class="node"><title>Valid</title>
<polygon fill="white" stroke="white" points="369,-465 331,-465 331,-427 369,-427 369,-465"/>
<text text-anchor="middle" x="350" y="-443.5" font-family="Arial" font-size="10.00">Valid</text>
</g>
<!-- Pending&#45;&gt;Valid -->
<g id="edge3" class="edge"><title>Pending&#45;&gt;Valid</title>
<path fill="none" stroke="black" stroke-dasharray="1,5" d="M350,-550.805C350,-529.018 350,-498.025 350,-475.394"/>
<polygon fill="black" stroke="black" points="353.5,-475.342 350,-465.342 346.5,-475.342 353.5,-475.342"/>
</g>
<!-- validate -->
<g id="node10" class="node"><title>validate</title>
<ellipse fill="lightgrey" stroke="black" cx="193" cy="-446" rx="48.0833" ry="24.0416"/>
<text text-anchor="middle" x="193" y="-450" font-family="Arial" font-size="10.00">Engineering</text>
<text text-anchor="middle" x="193" y="-437" font-family="Arial" font-size="10.00">Review</text>
</g>
<!-- Pending&#45;&gt;validate -->
<g id="edge28" class="edge"><title>Pending&#45;&gt;validate</title>
<path fill="none" stroke="black" d="M323.722,-555.074C296.752,-532.57 254.732,-497.509 225.646,-473.239"/>
<polygon fill="black" stroke="black" points="227.729,-470.419 217.808,-466.7 223.244,-475.794 227.729,-470.419"/>
</g>
<!-- Invalid -->
<g id="node15" class="node"><title>Invalid</title>
<polygon fill="aliceblue" stroke="aliceblue" points="477,-598.5 435,-598.5 435,-555.5 477,-555.5 477,-598.5"/>
<text text-anchor="middle" x="456" y="-574.5" font-family="Arial" font-size="10.00">Invalid</text>
</g>
<!-- Pending&#45;&gt;Invalid -->
<g id="edge30" class="edge"><title>Pending&#45;&gt;Invalid</title>
<path fill="none" stroke="black" stroke-dasharray="1,5" d="M376.086,-577C392.286,-577 408.486,-577 424.686,-577"/>
<polygon fill="black" stroke="black" points="424.773,-580.5 434.773,-577 424.773,-573.5 424.773,-580.5"/>
</g>
<!-- Rejected -->
<g id="node17" class="node"><title>Rejected</title>
<polygon fill="aliceblue" stroke="aliceblue" points="483,-473.5 429,-473.5 429,-418.5 483,-418.5 483,-473.5"/>
<text text-anchor="middle" x="456" y="-443.5" font-family="Arial" font-size="10.00">Rejected</text>
</g>
<!-- Pending&#45;&gt;Rejected -->
<g id="edge32" class="edge"><title>Pending&#45;&gt;Rejected</title>
<path fill="none" stroke="black" stroke-dasharray="1,5" d="M371.196,-550.805C387.339,-530.855 409.728,-503.186 427.448,-481.286"/>
<polygon fill="black" stroke="black" points="430.175,-483.48 433.745,-473.504 424.733,-479.077 430.175,-483.48"/>
</g>
<!-- Fixed -->
<g id="node5" class="node"><title>Fixed</title>
<polygon fill="white" stroke="white" points="352,-333.5 312,-333.5 312,-292.5 352,-292.5 352,-333.5"/>
<text text-anchor="middle" x="332" y="-310.5" font-family="Arial" font-size="10.00">Fixed</text>
</g>
<!-- Valid&#45;&gt;Fixed -->
<g id="edge4" class="edge"><title>Valid&#45;&gt;Fixed</title>
<path fill="none" stroke="black" stroke-dasharray="1,5" d="M347.421,-426.944C344.482,-405.228 339.637,-369.426 336.161,-343.746"/>
<polygon fill="black" stroke="black" points="339.621,-343.212 334.811,-333.772 332.684,-344.151 339.621,-343.212"/>
</g>
<!-- prioritze -->
<g id="node11" class="node"><title>prioritze</title>
<ellipse fill="lightgrey" stroke="black" cx="193" cy="-313" rx="62.9325" ry="33.234"/>
<text text-anchor="middle" x="193" y="-323.5" font-family="Arial" font-size="10.00">Prioritize, assign</text>
<text text-anchor="middle" x="193" y="-310.5" font-family="Arial" font-size="10.00">to project(s),</text>
<text text-anchor="middle" x="193" y="-297.5" font-family="Arial" font-size="10.00">complete fix</text>
</g>
<!-- Valid&#45;&gt;prioritze -->
<g id="edge40" class="edge"><title>Valid&#45;&gt;prioritze</title>
<path fill="none" stroke="black" d="M330.72,-432.843C314.176,-421.306 289.923,-403.797 270,-387 256.136,-375.311 241.627,-361.753 228.989,-349.459"/>
<polygon fill="black" stroke="black" points="231.372,-346.895 221.783,-342.391 226.471,-351.892 231.372,-346.895"/>
</g>
<!-- Accepted -->
<g id="node18" class="node"><title>Accepted</title>
<polygon fill="aliceblue" stroke="aliceblue" points="504,-342 446,-342 446,-284 504,-284 504,-342"/>
<text text-anchor="middle" x="475" y="-317" font-family="Arial" font-size="10.00">Accepted</text>
<text text-anchor="middle" x="475" y="-304" font-family="Arial" font-size="10.00">Risk</text>
</g>
<!-- Valid&#45;&gt;Accepted -->
<g id="edge42" class="edge"><title>Valid&#45;&gt;Accepted</title>
<path fill="none" stroke="black" stroke-dasharray="1,5" d="M369.005,-435.504C386.85,-424.964 413.5,-407.394 432,-387 441.546,-376.476 449.961,-363.489 456.757,-351.348"/>
<polygon fill="black" stroke="black" points="459.978,-352.748 461.63,-342.283 453.812,-349.433 459.978,-352.748"/>
</g>
<!-- Unverifiable -->
<g id="node19" class="node"><title>Unverifiable</title>
<polygon fill="aliceblue" stroke="aliceblue" points="494,-211.5 430,-211.5 430,-146.5 494,-146.5 494,-211.5"/>
<text text-anchor="middle" x="462" y="-176.5" font-family="Arial" font-size="10.00">Unverifiable</text>
</g>
<!-- Valid&#45;&gt;Unverifiable -->
<g id="edge44" class="edge"><title>Valid&#45;&gt;Unverifiable</title>
<path fill="none" stroke="black" stroke-dasharray="1,5" d="M366.782,-426.866C375.814,-415.809 386.589,-401.293 394,-387 422.092,-332.827 441.702,-264.75 452.415,-221.543"/>
<polygon fill="black" stroke="black" points="455.858,-222.195 454.819,-211.651 449.056,-220.541 455.858,-222.195"/>
</g>
<!-- Reconfigured -->
<g id="node20" class="node"><title>Reconfigured</title>
<polygon fill="aliceblue" stroke="aliceblue" points="498,-89.5 426,-89.5 426,-16.5 498,-16.5 498,-89.5"/>
<text text-anchor="middle" x="462" y="-50.5" font-family="Arial" font-size="10.00">Reconfigured</text>
</g>
<!-- Valid&#45;&gt;Reconfigured -->
<g id="edge46" class="edge"><title>Valid&#45;&gt;Reconfigured</title>
<path fill="none" stroke="black" stroke-dasharray="1,5" d="M352.889,-426.835C360.609,-377.791 383.698,-244.128 421,-138 425.546,-125.067 431.5,-111.508 437.456,-99.1133"/>
<polygon fill="black" stroke="black" points="440.719,-100.41 441.988,-89.892 434.436,-97.3229 440.719,-100.41"/>
</g>
<!-- Verified -->
<g id="node6" class="node"><title>Verified</title>
<polygon fill="white" stroke="white" points="358,-203.5 310,-203.5 310,-154.5 358,-154.5 358,-203.5"/>
<text text-anchor="middle" x="334" y="-176.5" font-family="Arial" font-size="10.00">Verified</text>
</g>
<!-- Fixed&#45;&gt;Verified -->
<g id="edge5" class="edge"><title>Fixed&#45;&gt;Verified</title>
<path fill="none" stroke="black" stroke-dasharray="1,5" d="M332.308,-292.356C332.621,-271.415 333.11,-238.623 333.482,-213.684"/>
<polygon fill="black" stroke="black" points="336.984,-213.586 333.634,-203.535 329.985,-213.482 336.984,-213.586"/>
</g>
<!-- verify -->
<g id="node12" class="node"><title>verify</title>
<ellipse fill="burlywood" stroke="black" cx="177" cy="-179" rx="96.8736" ry="33.234"/>
<text text-anchor="middle" x="177" y="-189.5" font-family="Arial" font-size="10.00">Review artifacts,</text>
<text text-anchor="middle" x="177" y="-176.5" font-family="Arial" font-size="10.00">verify code, docs, drawings,</text>
<text text-anchor="middle" x="177" y="-163.5" font-family="Arial" font-size="10.00">test procedures</text>
</g>
<!-- Fixed&#45;&gt;verify -->
<g id="edge54" class="edge"><title>Fixed&#45;&gt;verify</title>
<path fill="none" stroke="black" d="M325.997,-292.312C320.426,-276.135 310.744,-253.956 296,-239 283.711,-226.535 268.293,-216.198 252.669,-207.819"/>
<polygon fill="black" stroke="black" points="253.964,-204.55 243.467,-203.11 250.775,-210.782 253.964,-204.55"/>
<text text-anchor="middle" x="311" y="-243.5" font-family="Arial" font-size="10.00">?</text>
</g>
<!-- Closed -->
<g id="node7" class="node"><title>Closed</title>
<polygon fill="white" stroke="white" points="344,-76.5 298,-76.5 298,-29.5 344,-29.5 344,-76.5"/>
<text text-anchor="middle" x="321" y="-50.5" font-family="Arial" font-size="10.00">Closed</text>
</g>
<!-- Verified&#45;&gt;Closed -->
<g id="edge6" class="edge"><title>Verified&#45;&gt;Closed</title>
<path fill="none" stroke="black" stroke-dasharray="1,5" d="M331.463,-154.407C329.469,-135.081 326.67,-107.959 324.469,-86.6256"/>
<polygon fill="black" stroke="black" points="327.951,-86.2656 323.443,-76.6777 320.988,-86.9841 327.951,-86.2656"/>
</g>
<!-- report -->
<g id="node26" class="node"><title>report</title>
<ellipse fill="burlywood" stroke="black" cx="32" cy="-446" rx="31.8198" ry="31.8198"/>
<polyline fill="none" stroke="black" points="53.1648,-470 10.8352,-470 "/>
<polyline fill="none" stroke="black" points="53.1648,-422 10.8352,-422 "/>
<text text-anchor="middle" x="32" y="-450" font-family="Arial" font-size="10.00">Report</text>
<text text-anchor="middle" x="32" y="-437" font-family="Arial" font-size="10.00">Status</text>
</g>
<!-- Closed&#45;&gt;report -->
<g id="edge66" class="edge"><title>Closed&#45;&gt;report</title>
<path fill="none" stroke="black" d="M290.193,-59.0785C229.215,-71.7602 96.5531,-102.8 68,-138 5.83472,-214.636 14.2345,-339.427 24.0196,-404.128"/>
<polygon fill="black" stroke="black" points="20.6199,-405.034 25.6547,-414.356 27.5321,-403.929 20.6199,-405.034"/>
</g>
<!-- revise -->
<g id="node9" class="node"><title>revise</title>
<ellipse fill="burlywood" stroke="black" cx="169" cy="-577" rx="80.8184" ry="42.4264"/>
<text text-anchor="middle" x="169" y="-594" font-family="Arial" font-size="10.00">Revise AR and reissue</text>
<text text-anchor="middle" x="169" y="-581" font-family="Arial" font-size="10.00">as new revision</text>
<text text-anchor="middle" x="169" y="-568" font-family="Arial" font-size="10.00">(close original AR</text>
<text text-anchor="middle" x="169" y="-555" font-family="Arial" font-size="10.00">based on partial fix)</text>
</g>
<!-- revise&#45;&gt;Pending -->
<g id="edge64" class="edge"><title>revise&#45;&gt;Pending</title>
<path fill="none" stroke="black" d="M250.309,-577C271.488,-577 292.667,-577 313.846,-577"/>
<polygon fill="black" stroke="black" points="313.909,-580.5 323.909,-577 313.909,-573.5 313.909,-580.5"/>
</g>
<!-- revise&#45;&gt;validate -->
<!-- validate&#45;&gt;Valid -->
<g id="edge34" class="edge"><title>validate&#45;&gt;Valid</title>
<path fill="none" stroke="black" d="M241.143,-446C267.662,-446 294.182,-446 320.701,-446"/>
<polygon fill="black" stroke="black" points="320.865,-449.5 330.865,-446 320.865,-442.5 320.865,-449.5"/>
</g>
<!-- validate&#45;&gt;prioritze -->
<g id="edge38" class="edge"><title>validate&#45;&gt;prioritze</title>
<path fill="none" stroke="black" stroke-dasharray="1,5" d="M182.417,-422.528C179.452,-404.052 178.747,-377.809 180.304,-355.643"/>
<polygon fill="black" stroke="black" points="183.809,-355.738 181.214,-345.466 176.837,-355.114 183.809,-355.738"/>
</g>
<!-- validate&#45;&gt;prioritze -->
<!-- prioritze&#45;&gt;Fixed -->
<g id="edge52" class="edge"><title>prioritze&#45;&gt;Fixed</title>
<path fill="none" stroke="black" d="M256.256,-313C271.321,-313 286.386,-313 301.451,-313"/>
<polygon fill="black" stroke="black" points="301.88,-316.5 311.88,-313 301.88,-309.5 301.88,-316.5"/>
</g>
<!-- prioritze&#45;&gt;validate -->
<g id="edge36" class="edge"><title>prioritze&#45;&gt;validate</title>
<path fill="none" stroke="black" stroke-dasharray="1,5" d="M204.786,-345.466C207.028,-365.764 207.07,-391.854 204.912,-412.369"/>
<polygon fill="black" stroke="black" points="201.41,-412.159 203.583,-422.528 208.351,-413.067 201.41,-412.159"/>
</g>
<!-- prioritze&#45;&gt;verify -->
<g id="edge48" class="edge"><title>prioritze&#45;&gt;verify</title>
<path fill="none" stroke="black" stroke-dasharray="1,5" d="M177.449,-280.904C173.39,-263.395 170.436,-241.475 169.459,-222.456"/>
<polygon fill="black" stroke="black" points="172.949,-222.114 169.125,-212.234 165.953,-222.343 172.949,-222.114"/>
</g>
<!-- prioritze&#45;&gt;verify -->
<!-- verify&#45;&gt;Valid -->
<g id="edge60" class="edge"><title>verify&#45;&gt;Valid</title>
<path fill="none" stroke="black" d="M208.069,-210.564C225.971,-229.702 248.185,-255.154 265,-280 281.423,-304.265 317.11,-377.193 336.614,-417.847"/>
<polygon fill="black" stroke="black" points="333.501,-419.45 340.974,-426.96 339.815,-416.429 333.501,-419.45"/>
<text text-anchor="middle" x="217.329" y="-211.839" font-family="Arial" font-size="10.00">No</text>
</g>
<!-- verify&#45;&gt;Verified -->
<g id="edge56" class="edge"><title>verify&#45;&gt;Verified</title>
<path fill="none" stroke="black" d="M274.197,-179C282.98,-179 291.432,-179 299.077,-179"/>
<polygon fill="black" stroke="black" points="299.297,-182.5 309.297,-179 299.297,-175.5 299.297,-182.5"/>
<text text-anchor="middle" x="292" y="-183" font-family="Arial" font-size="10.00">Yes</text>
</g>
<!-- verify&#45;&gt;revise -->
<g id="edge58" class="edge"><title>verify&#45;&gt;revise</title>
<path fill="none" stroke="black" d="M153.53,-211.313C141.209,-230.299 127.377,-255.348 121,-280 99.0683,-364.784 126.455,-465.909 147.965,-525.602"/>
<polygon fill="black" stroke="black" points="144.751,-527.004 151.494,-535.176 151.32,-524.583 144.751,-527.004"/>
<text text-anchor="middle" x="129" y="-377.5" font-family="Arial" font-size="10.00">Partial</text>
</g>
<!-- verify&#45;&gt;prioritze -->
<g id="edge50" class="edge"><title>verify&#45;&gt;prioritze</title>
<path fill="none" stroke="black" stroke-dasharray="1,5" d="M192.737,-211.906C196.739,-229.447 199.636,-251.238 200.569,-270.093"/>
<polygon fill="black" stroke="black" points="197.075,-270.332 200.88,-280.22 204.071,-270.117 197.075,-270.332"/>
</g>
<!-- verify&#45;&gt;report -->
<!-- Invalid&#45;&gt;Rejected -->
<!-- Rejected&#45;&gt;Accepted -->
<!-- Accepted&#45;&gt;Unverifiable -->
<!-- Unverifiable&#45;&gt;Reconfigured -->
<!-- Draft -->
<g id="node22" class="node"><title>Draft</title>
<polygon fill="burlywood" stroke="black" points="350,-730 317.789,-712 350,-694 382.211,-712 350,-730"/>
<polyline fill="none" stroke="black" points="328.264,-717.854 328.264,-706.146 "/>
<polyline fill="none" stroke="black" points="339.525,-699.854 360.475,-699.854 "/>
<polyline fill="none" stroke="black" points="371.736,-706.146 371.736,-717.854 "/>
<polyline fill="none" stroke="black" points="360.475,-724.146 339.525,-724.146 "/>
<text text-anchor="middle" x="350" y="-709.5" font-family="Arial" font-size="10.00">Draft</text>
</g>
<!-- Draft&#45;&gt;Pending -->
<g id="edge26" class="edge"><title>Draft&#45;&gt;Pending</title>
<path fill="none" stroke="black" stroke-dasharray="1,5" d="M350,-693.793C350,-673.298 350,-639.473 350,-613.485"/>
<polygon fill="black" stroke="black" points="353.5,-613.244 350,-603.245 346.5,-613.245 353.5,-613.244"/>
</g>
<!-- peer -->
<g id="node23" class="node"><title>peer</title>
<ellipse fill="burlywood" stroke="black" cx="467" cy="-712" rx="48.9975" ry="24.0416"/>
<text text-anchor="middle" x="467" y="-716" font-family="Arial" font-size="10.00">Peer Review</text>
<text text-anchor="middle" x="467" y="-703" font-family="Arial" font-size="10.00">(internal)</text>
</g>
<!-- Draft&#45;&gt;peer -->
<g id="edge22" class="edge"><title>Draft&#45;&gt;peer</title>
<path fill="none" stroke="black" stroke-dasharray="1,5" d="M369.195,-704.594C384.447,-699.864 399.7,-697.888 414.952,-698.664"/>
<polygon fill="black" stroke="black" points="414.7,-702.156 424.975,-699.571 415.33,-695.184 414.7,-702.156"/>
</g>
<!-- peer&#45;&gt;Draft -->
<g id="edge24" class="edge"><title>peer&#45;&gt;Draft</title>
<path fill="none" stroke="black" stroke-dasharray="1,5" d="M424.975,-724.429C409.722,-726.412 394.47,-725.641 379.218,-722.118"/>
<polygon fill="black" stroke="black" points="379.762,-718.639 369.195,-719.406 377.934,-725.396 379.762,-718.639"/>
</g>
</g>
</svg>
